<?xml version="1.0" encoding="utf-8" standalone="no"?>
<!DOCTYPE svg PUBLIC "-//W3C//DTD SVG 1.1//EN"
  "http://www.w3.org/Graphics/SVG/1.1/DTD/svg11.dtd">
<svg xmlns:xlink="http://www.w3.org/1999/xlink" width="432pt" height="576pt" viewBox="0 0 432 576" xmlns="http://www.w3.org/2000/svg" version="1.1">
 <metadata>
  <rdf:RDF xmlns:dc="http://purl.org/dc/elements/1.1/" xmlns:cc="http://creativecommons.org/ns#" xmlns:rdf="http://www.w3.org/1999/02/22-rdf-syntax-ns#">
   <cc:Work>
    <dc:type rdf:resource="http://purl.org/dc/dcmitype/StillImage"/>
    <dc:date>2025-12-01T08:18:37.244452</dc:date>
    <dc:format>image/svg+xml</dc:format>
    <dc:creator>
     <cc:Agent>
      <dc:title>Matplotlib v3.6.3, https://matplotlib.org/</dc:title>
     </cc:Agent>
    </dc:creator>
   </cc:Work>
  </rdf:RDF>
 </metadata>
 <defs>
  <style type="text/css">*{stroke-linejoin: round; stroke-linecap: butt}</style>
 </defs>
 <g id="figure_1">
  <g id="patch_1">
   <path d="M 0 576 
L 432 576 
L 432 0 
L 0 0 
z
" style="fill: #ffffff"/>
  </g>
  <g id="axes_1">
   <g id="patch_2">
    <path d="M 57.1752 57.924 
L 169.6248 57.924 
Q 175.7808 57.924 175.7808 50.994 
L 175.7808 26.046 
Q 175.7808 19.116 169.6248 19.116 
L 57.1752 19.116 
Q 51.0192 19.116 51.0192 26.046 
L 51.0192 50.994 
Q 51.0192 57.924 57.1752 57.924 
z
" clip-path="url(#p2286cd19d5)" style="fill: #edeff7; stroke: #555555; stroke-linejoin: miter"/>
   </g>
   <g id="patch_3">
    <path d="M 113.5 58.998691 
Q 113.5 63.239551 113.5 67.480411 
L 115.4 67.480411 
Q 114.4 70.480302 113.4 73.480193 
Q 112.4 70.480302 111.4 67.480411 
L 113.3 67.480411 
Q 113.3 63.239551 113.3 58.998691 
L 113.5 58.998691 
z
" clip-path="url(#p2286cd19d5)" style="fill: #555555; stroke: #555555; stroke-width: 0.8; stroke-linecap: round"/>
   </g>
   <g id="patch_4">
    <path d="M 57.1752 104.124 
L 169.6248 104.124 
Q 175.7808 104.124 175.7808 97.194 
L 175.7808 72.246 
Q 175.7808 65.316 169.6248 65.316 
L 57.1752 65.316 
Q 51.0192 65.316 51.0192 72.246 
L 51.0192 97.194 
Q 51.0192 104.124 57.1752 104.124 
z
" clip-path="url(#p2286cd19d5)" style="fill: #a1a9d0; stroke: #555555; stroke-linejoin: miter"/>
   </g>
   <g id="patch_5">
    <path d="M 113.5 105.198691 
Q 113.5 109.439551 113.5 113.680411 
L 115.4 113.680411 
Q 114.4 116.680302 113.4 119.680193 
Q 112.4 116.680302 111.4 113.680411 
L 113.3 113.680411 
Q 113.3 109.439551 113.3 105.198691 
L 113.5 105.198691 
z
" clip-path="url(#p2286cd19d5)" style="fill: #555555; stroke: #555555; stroke-width: 0.8; stroke-linecap: round"/>
   </g>
   <g id="patch_6">
    <path d="M 57.1752 159.564 
L 169.6248 159.564 
Q 175.7808 159.564 175.7808 152.634 
L 175.7808 127.686 
Q 175.7808 120.756 169.6248 120.756 
L 57.1752 120.756 
Q 51.0192 120.756 51.0192 127.686 
L 51.0192 152.634 
Q 51.0192 159.564 57.1752 159.564 
z
" clip-path="url(#p2286cd19d5)" style="fill: #a1a9d0; stroke: #555555; stroke-linejoin: miter"/>
   </g>
   <g id="patch_7">
    <path d="M 113.5 160.638691 
Q 113.5 164.879551 113.5 169.120411 
L 115.4 169.120411 
Q 114.4 172.120302 113.4 175.120193 
Q 112.4 172.120302 111.4 169.120411 
L 113.3 169.120411 
Q 113.3 164.879551 113.3 160.638691 
L 113.5 160.638691 
z
" clip-path="url(#p2286cd19d5)" style="fill: #555555; stroke: #555555; stroke-width: 0.8; stroke-linecap: round"/>
   </g>
   <g id="patch_8">
    <path d="M 57.1752 215.004 
L 169.6248 215.004 
Q 175.7808 215.004 175.7808 208.074 
L 175.7808 183.126 
Q 175.7808 176.196 169.6248 176.196 
L 57.1752 176.196 
Q 51.0192 176.196 51.0192 183.126 
L 51.0192 208.074 
Q 51.0192 215.004 57.1752 215.004 
z
" clip-path="url(#p2286cd19d5)" style="fill: #b883d4; stroke: #555555; stroke-linejoin: miter"/>
   </g>
   <g id="patch_9">
    <path d="M 262.3752 57.924 
L 374.8248 57.924 
Q 380.9808 57.924 380.9808 50.994 
L 380.9808 26.046 
Q 380.9808 19.116 374.8248 19.116 
L 262.3752 19.116 
Q 256.2192 19.116 256.2192 26.046 
L 256.2192 50.994 
Q 256.2192 57.924 262.3752 57.924 
z
" clip-path="url(#p2286cd19d5)" style="fill: #fde9e4; stroke: #555555; stroke-linejoin: miter"/>
   </g>
   <g id="patch_10">
    <path d="M 318.7 58.998691 
Q 318.7 63.239551 318.7 67.480411 
L 320.6 67.480411 
Q 319.6 70.480302 318.6 73.480193 
Q 317.6 70.480302 316.6 67.480411 
L 318.5 67.480411 
Q 318.5 63.239551 318.5 58.998691 
L 318.7 58.998691 
z
" clip-path="url(#p2286cd19d5)" style="fill: #555555; stroke: #555555; stroke-width: 0.8; stroke-linecap: round"/>
   </g>
   <g id="patch_11">
    <path d="M 262.3752 104.124 
L 374.8248 104.124 
Q 380.9808 104.124 380.9808 97.194 
L 380.9808 72.246 
Q 380.9808 65.316 374.8248 65.316 
L 262.3752 65.316 
Q 256.2192 65.316 256.2192 72.246 
L 256.2192 97.194 
Q 256.2192 104.124 262.3752 104.124 
z
" clip-path="url(#p2286cd19d5)" style="fill: #f0988c; stroke: #555555; stroke-linejoin: miter"/>
   </g>
   <g id="patch_12">
    <path d="M 318.7 105.198691 
Q 318.7 109.439551 318.7 113.680411 
L 320.6 113.680411 
Q 319.6 116.680302 318.6 119.680193 
Q 317.6 116.680302 316.6 113.680411 
L 318.5 113.680411 
Q 318.5 109.439551 318.5 105.198691 
L 318.7 105.198691 
z
" clip-path="url(#p2286cd19d5)" style="fill: #555555; stroke: #555555; stroke-width: 0.8; stroke-linecap: round"/>
   </g>
   <g id="patch_13">
    <path d="M 262.3752 159.564 
L 374.8248 159.564 
Q 380.9808 159.564 380.9808 152.634 
L 380.9808 127.686 
Q 380.9808 120.756 374.8248 120.756 
L 262.3752 120.756 
Q 256.2192 120.756 256.2192 127.686 
L 256.2192 152.634 
Q 256.2192 159.564 262.3752 159.564 
z
" clip-path="url(#p2286cd19d5)" style="fill: #f0988c; stroke: #555555; stroke-linejoin: miter"/>
   </g>
   <g id="patch_14">
    <path d="M 318.7 160.638691 
Q 318.7 164.879551 318.7 169.120411 
L 320.6 169.120411 
Q 319.6 172.120302 318.6 175.120193 
Q 317.6 172.120302 316.6 169.120411 
L 318.5 169.120411 
Q 318.5 164.879551 318.5 160.638691 
L 318.7 160.638691 
z
" clip-path="url(#p2286cd19d5)" style="fill: #555555; stroke: #555555; stroke-width: 0.8; stroke-linecap: round"/>
   </g>
   <g id="patch_15">
    <path d="M 262.3752 215.004 
L 374.8248 215.004 
Q 380.9808 215.004 380.9808 208.074 
L 380.9808 183.126 
Q 380.9808 176.196 374.8248 176.196 
L 262.3752 176.196 
Q 256.2192 176.196 256.2192 183.126 
L 256.2192 208.074 
Q 256.2192 215.004 262.3752 215.004 
z
" clip-path="url(#p2286cd19d5)" style="fill: #c4a5de; stroke: #555555; stroke-linejoin: miter"/>
   </g>
   <g id="patch_16">
    <path d="M 139.2552 288.924 
L 292.7448 288.924 
Q 298.9008 288.924 298.9008 281.994 
L 298.9008 247.806 
Q 298.9008 240.876 292.7448 240.876 
L 139.2552 240.876 
Q 133.0992 240.876 133.0992 247.806 
L 133.0992 281.994 
Q 133.0992 288.924 139.2552 288.924 
z
" clip-path="url(#p2286cd19d5)" style="fill: #cfeaf1; stroke: #555555; stroke-linejoin: miter"/>
   </g>
   <g id="patch_17">
    <path d="M 114.458071 229.639751 
Q 122.290035 243.746446 130.121999 257.853142 
L 131.783153 256.930878 
Q 132.365945 260.040734 132.948737 263.15059 
Q 130.617362 261.011538 128.285988 258.872486 
L 129.947141 257.950222 
Q 122.115177 243.843527 114.283213 229.736831 
L 114.458071 229.639751 
z
" clip-path="url(#p2286cd19d5)" style="fill: #555555; stroke: #555555; stroke-width: 0.8; stroke-linecap: round"/>
   </g>
   <g id="patch_18">
    <path d="M 317.716787 229.736831 
Q 309.884823 243.843527 302.052859 257.950222 
L 303.714012 258.872486 
Q 301.382638 261.011538 299.051263 263.15059 
Q 299.634055 260.040734 300.216847 256.930878 
L 301.878001 257.853142 
Q 309.709965 243.746446 317.541929 229.639751 
L 317.716787 229.736831 
z
" clip-path="url(#p2286cd19d5)" style="fill: #555555; stroke: #555555; stroke-width: 0.8; stroke-linecap: round"/>
   </g>
   <g id="patch_19">
    <path d="M 216.1 289.999255 
Q 216.1 296.548343 216.1 303.09743 
L 218 303.09743 
Q 217 306.098027 216 309.098623 
Q 215 306.098027 214 303.09743 
L 215.9 303.09743 
Q 215.9 296.548343 215.9 289.999255 
L 216.1 289.999255 
z
" clip-path="url(#p2286cd19d5)" style="fill: #555555; stroke: #555555; stroke-width: 0.8; stroke-linecap: round"/>
   </g>
   <g id="patch_20">
    <path d="M 139.2552 348.984 
L 292.7448 348.984 
Q 298.9008 348.984 298.9008 342.054 
L 298.9008 317.106 
Q 298.9008 310.176 292.7448 310.176 
L 139.2552 310.176 
Q 133.0992 310.176 133.0992 317.106 
L 133.0992 342.054 
Q 133.0992 348.984 139.2552 348.984 
z
" clip-path="url(#p2286cd19d5)" style="fill: #96cccb; stroke: #555555; stroke-linejoin: miter"/>
   </g>
   <g id="patch_21">
    <path d="M 216.1 373.158691 
Q 216.1 377.399551 216.1 381.640411 
L 218 381.640411 
Q 217 384.640302 216 387.640193 
Q 215 384.640302 214 381.640411 
L 215.9 381.640411 
Q 215.9 377.399551 215.9 373.158691 
L 216.1 373.158691 
z
" clip-path="url(#p2286cd19d5)" style="fill: #555555; stroke: #555555; stroke-width: 0.8; stroke-linecap: round"/>
   </g>
   <g id="patch_22">
    <path d="M 139.2552 409.044 
L 292.7448 409.044 
Q 298.9008 409.044 298.9008 402.114 
L 298.9008 377.166 
Q 298.9008 370.236 292.7448 370.236 
L 139.2552 370.236 
Q 133.0992 370.236 133.0992 377.166 
L 133.0992 402.114 
Q 133.0992 409.044 139.2552 409.044 
z
" clip-path="url(#p2286cd19d5)" style="fill: #9e9e9e; stroke: #555555; stroke-linejoin: miter"/>
   </g>
   <g id="patch_23">
    <path d="M 216.1 419.358691 
Q 216.1 423.599551 216.1 427.840411 
L 218 427.840411 
Q 217 430.840302 216 433.840193 
Q 215 430.840302 214 427.840411 
L 215.9 427.840411 
Q 215.9 423.599551 215.9 419.358691 
L 216.1 419.358691 
z
" clip-path="url(#p2286cd19d5)" style="fill: #555555; stroke: #555555; stroke-width: 0.8; stroke-linecap: round"/>
   </g>
   <g id="patch_24">
    <path d="M 139.2552 455.244 
L 292.7448 455.244 
Q 298.9008 455.244 298.9008 448.314 
L 298.9008 423.366 
Q 298.9008 416.436 292.7448 416.436 
L 139.2552 416.436 
Q 133.0992 416.436 133.0992 423.366 
L 133.0992 448.314 
Q 133.0992 455.244 139.2552 455.244 
z
" clip-path="url(#p2286cd19d5)" style="fill: #9e9e9e; stroke: #555555; stroke-linejoin: miter"/>
   </g>
   <g id="patch_25">
    <path d="M 216.1 465.558691 
Q 216.1 469.799551 216.1 474.040411 
L 218 474.040411 
Q 217 477.040302 216 480.040193 
Q 215 477.040302 214 474.040411 
L 215.9 474.040411 
Q 215.9 469.799551 215.9 465.558691 
L 216.1 465.558691 
z
" clip-path="url(#p2286cd19d5)" style="fill: #555555; stroke: #555555; stroke-width: 0.8; stroke-linecap: round"/>
   </g>
   <g id="patch_26">
    <path d="M 139.2552 501.444 
L 292.7448 501.444 
Q 298.9008 501.444 298.9008 494.514 
L 298.9008 469.566 
Q 298.9008 462.636 292.7448 462.636 
L 139.2552 462.636 
Q 133.0992 462.636 133.0992 469.566 
L 133.0992 494.514 
Q 133.0992 501.444 139.2552 501.444 
z
" clip-path="url(#p2286cd19d5)" style="fill: #9e9e9e; stroke: #555555; stroke-linejoin: miter"/>
   </g>
   <g id="patch_27">
    <path d="M 216.1 507.139255 
Q 216.1 513.688343 216.1 520.23743 
L 218 520.23743 
Q 217 523.238027 216 526.238623 
Q 215 523.238027 214 520.23743 
L 215.9 520.23743 
Q 215.9 513.688343 215.9 507.139255 
L 216.1 507.139255 
z
" clip-path="url(#p2286cd19d5)" style="fill: #555555; stroke: #555555; stroke-width: 0.8; stroke-linecap: round"/>
   </g>
   <g id="patch_28">
    <path d="M 139.2552 547.644 
L 292.7448 547.644 
Q 298.9008 547.644 298.9008 540.714 
L 298.9008 515.766 
Q 298.9008 508.836 292.7448 508.836 
L 139.2552 508.836 
Q 133.0992 508.836 133.0992 515.766 
L 133.0992 540.714 
Q 133.0992 547.644 139.2552 547.644 
z
" clip-path="url(#p2286cd19d5)" style="fill: #ffffff; stroke: #555555; stroke-linejoin: miter"/>
   </g>
   <g id="text_1">
    <!-- EEG Input -->
    <g style="fill: #333333" transform="translate(93.616875 36.248375) scale(0.08 -0.08)">
     <defs>
      <path id="DejaVuSans-45" d="M 628 4666 
L 3578 4666 
L 3578 4134 
L 1259 4134 
L 1259 2753 
L 3481 2753 
L 3481 2222 
L 1259 2222 
L 1259 531 
L 3634 531 
L 3634 0 
L 628 0 
L 628 4666 
z
" transform="scale(0.015625)"/>
      <path id="DejaVuSans-47" d="M 3809 666 
L 3809 1919 
L 2778 1919 
L 2778 2438 
L 4434 2438 
L 4434 434 
Q 4069 175 3628 42 
Q 3188 -91 2688 -91 
Q 1594 -91 976 548 
Q 359 1188 359 2328 
Q 359 3472 976 4111 
Q 1594 4750 2688 4750 
Q 3144 4750 3555 4637 
Q 3966 4525 4313 4306 
L 4313 3634 
Q 3963 3931 3569 4081 
Q 3175 4231 2741 4231 
Q 1884 4231 1454 3753 
Q 1025 3275 1025 2328 
Q 1025 1384 1454 906 
Q 1884 428 2741 428 
Q 3075 428 3337 486 
Q 3600 544 3809 666 
z
" transform="scale(0.015625)"/>
      <path id="DejaVuSans-20" transform="scale(0.015625)"/>
      <path id="DejaVuSans-49" d="M 628 4666 
L 1259 4666 
L 1259 0 
L 628 0 
L 628 4666 
z
" transform="scale(0.015625)"/>
      <path id="DejaVuSans-6e" d="M 3513 2113 
L 3513 0 
L 2938 0 
L 2938 2094 
Q 2938 2591 2744 2837 
Q 2550 3084 2163 3084 
Q 1697 3084 1428 2787 
Q 1159 2491 1159 1978 
L 1159 0 
L 581 0 
L 581 3500 
L 1159 3500 
L 1159 2956 
Q 1366 3272 1645 3428 
Q 1925 3584 2291 3584 
Q 2894 3584 3203 3211 
Q 3513 2838 3513 2113 
z
" transform="scale(0.015625)"/>
      <path id="DejaVuSans-70" d="M 1159 525 
L 1159 -1331 
L 581 -1331 
L 581 3500 
L 1159 3500 
L 1159 2969 
Q 1341 3281 1617 3432 
Q 1894 3584 2278 3584 
Q 2916 3584 3314 3078 
Q 3713 2572 3713 1747 
Q 3713 922 3314 415 
Q 2916 -91 2278 -91 
Q 1894 -91 1617 61 
Q 1341 213 1159 525 
z
M 3116 1747 
Q 3116 2381 2855 2742 
Q 2594 3103 2138 3103 
Q 1681 3103 1420 2742 
Q 1159 2381 1159 1747 
Q 1159 1113 1420 752 
Q 1681 391 2138 391 
Q 2594 391 2855 752 
Q 3116 1113 3116 1747 
z
" transform="scale(0.015625)"/>
      <path id="DejaVuSans-75" d="M 544 1381 
L 544 3500 
L 1119 3500 
L 1119 1403 
Q 1119 906 1312 657 
Q 1506 409 1894 409 
Q 2359 409 2629 706 
Q 2900 1003 2900 1516 
L 2900 3500 
L 3475 3500 
L 3475 0 
L 2900 0 
L 2900 538 
Q 2691 219 2414 64 
Q 2138 -91 1772 -91 
Q 1169 -91 856 284 
Q 544 659 544 1381 
z
M 1991 3584 
L 1991 3584 
z
" transform="scale(0.015625)"/>
      <path id="DejaVuSans-74" d="M 1172 4494 
L 1172 3500 
L 2356 3500 
L 2356 3053 
L 1172 3053 
L 1172 1153 
Q 1172 725 1289 603 
Q 1406 481 1766 481 
L 2356 481 
L 2356 0 
L 1766 0 
Q 1100 0 847 248 
Q 594 497 594 1153 
L 594 3053 
L 172 3053 
L 172 3500 
L 594 3500 
L 594 4494 
L 1172 4494 
z
" transform="scale(0.015625)"/>
     </defs>
     <use xlink:href="#DejaVuSans-45"/>
     <use xlink:href="#DejaVuSans-45" x="63.183594"/>
     <use xlink:href="#DejaVuSans-47" x="126.367188"/>
     <use xlink:href="#DejaVuSans-20" x="203.857422"/>
     <use xlink:href="#DejaVuSans-49" x="235.644531"/>
     <use xlink:href="#DejaVuSans-6e" x="265.136719"/>
     <use xlink:href="#DejaVuSans-70" x="328.515625"/>
     <use xlink:href="#DejaVuSans-75" x="391.992188"/>
     <use xlink:href="#DejaVuSans-74" x="455.371094"/>
    </g>
    <!-- 59×250 -->
    <g style="fill: #333333" transform="translate(97.323125 45.206625) scale(0.08 -0.08)">
     <defs>
      <path id="DejaVuSans-35" d="M 691 4666 
L 3169 4666 
L 3169 4134 
L 1269 4134 
L 1269 2991 
Q 1406 3038 1543 3061 
Q 1681 3084 1819 3084 
Q 2600 3084 3056 2656 
Q 3513 2228 3513 1497 
Q 3513 744 3044 326 
Q 2575 -91 1722 -91 
Q 1428 -91 1123 -41 
Q 819 9 494 109 
L 494 744 
Q 775 591 1075 516 
Q 1375 441 1709 441 
Q 2250 441 2565 725 
Q 2881 1009 2881 1497 
Q 2881 1984 2565 2268 
Q 2250 2553 1709 2553 
Q 1456 2553 1204 2497 
Q 953 2441 691 2322 
L 691 4666 
z
" transform="scale(0.015625)"/>
      <path id="DejaVuSans-39" d="M 703 97 
L 703 672 
Q 941 559 1184 500 
Q 1428 441 1663 441 
Q 2288 441 2617 861 
Q 2947 1281 2994 2138 
Q 2813 1869 2534 1725 
Q 2256 1581 1919 1581 
Q 1219 1581 811 2004 
Q 403 2428 403 3163 
Q 403 3881 828 4315 
Q 1253 4750 1959 4750 
Q 2769 4750 3195 4129 
Q 3622 3509 3622 2328 
Q 3622 1225 3098 567 
Q 2575 -91 1691 -91 
Q 1453 -91 1209 -44 
Q 966 3 703 97 
z
M 1959 2075 
Q 2384 2075 2632 2365 
Q 2881 2656 2881 3163 
Q 2881 3666 2632 3958 
Q 2384 4250 1959 4250 
Q 1534 4250 1286 3958 
Q 1038 3666 1038 3163 
Q 1038 2656 1286 2365 
Q 1534 2075 1959 2075 
z
" transform="scale(0.015625)"/>
      <path id="DejaVuSans-d7" d="M 4488 3438 
L 3059 2003 
L 4488 575 
L 4116 197 
L 2681 1631 
L 1247 197 
L 878 575 
L 2303 2003 
L 878 3438 
L 1247 3816 
L 2681 2381 
L 4116 3816 
L 4488 3438 
z
" transform="scale(0.015625)"/>
      <path id="DejaVuSans-32" d="M 1228 531 
L 3431 531 
L 3431 0 
L 469 0 
L 469 531 
Q 828 903 1448 1529 
Q 2069 2156 2228 2338 
Q 2531 2678 2651 2914 
Q 2772 3150 2772 3378 
Q 2772 3750 2511 3984 
Q 2250 4219 1831 4219 
Q 1534 4219 1204 4116 
Q 875 4013 500 3803 
L 500 4441 
Q 881 4594 1212 4672 
Q 1544 4750 1819 4750 
Q 2544 4750 2975 4387 
Q 3406 4025 3406 3419 
Q 3406 3131 3298 2873 
Q 3191 2616 2906 2266 
Q 2828 2175 2409 1742 
Q 1991 1309 1228 531 
z
" transform="scale(0.015625)"/>
      <path id="DejaVuSans-30" d="M 2034 4250 
Q 1547 4250 1301 3770 
Q 1056 3291 1056 2328 
Q 1056 1369 1301 889 
Q 1547 409 2034 409 
Q 2525 409 2770 889 
Q 3016 1369 3016 2328 
Q 3016 3291 2770 3770 
Q 2525 4250 2034 4250 
z
M 2034 4750 
Q 2819 4750 3233 4129 
Q 3647 3509 3647 2328 
Q 3647 1150 3233 529 
Q 2819 -91 2034 -91 
Q 1250 -91 836 529 
Q 422 1150 422 2328 
Q 422 3509 836 4129 
Q 1250 4750 2034 4750 
z
" transform="scale(0.015625)"/>
     </defs>
     <use xlink:href="#DejaVuSans-35"/>
     <use xlink:href="#DejaVuSans-39" x="63.623047"/>
     <use xlink:href="#DejaVuSans-d7" x="127.246094"/>
     <use xlink:href="#DejaVuSans-32" x="211.035156"/>
     <use xlink:href="#DejaVuSans-35" x="274.658203"/>
     <use xlink:href="#DejaVuSans-30" x="338.28125"/>
    </g>
   </g>
   <g id="text_2">
    <!-- Conv1 -->
    <g style="fill: #333333" transform="translate(102.297891 78.813094) scale(0.07 -0.07)">
     <defs>
      <path id="DejaVuSans-43" d="M 4122 4306 
L 4122 3641 
Q 3803 3938 3442 4084 
Q 3081 4231 2675 4231 
Q 1875 4231 1450 3742 
Q 1025 3253 1025 2328 
Q 1025 1406 1450 917 
Q 1875 428 2675 428 
Q 3081 428 3442 575 
Q 3803 722 4122 1019 
L 4122 359 
Q 3791 134 3420 21 
Q 3050 -91 2638 -91 
Q 1578 -91 968 557 
Q 359 1206 359 2328 
Q 359 3453 968 4101 
Q 1578 4750 2638 4750 
Q 3056 4750 3426 4639 
Q 3797 4528 4122 4306 
z
" transform="scale(0.015625)"/>
      <path id="DejaVuSans-6f" d="M 1959 3097 
Q 1497 3097 1228 2736 
Q 959 2375 959 1747 
Q 959 1119 1226 758 
Q 1494 397 1959 397 
Q 2419 397 2687 759 
Q 2956 1122 2956 1747 
Q 2956 2369 2687 2733 
Q 2419 3097 1959 3097 
z
M 1959 3584 
Q 2709 3584 3137 3096 
Q 3566 2609 3566 1747 
Q 3566 888 3137 398 
Q 2709 -91 1959 -91 
Q 1206 -91 779 398 
Q 353 888 353 1747 
Q 353 2609 779 3096 
Q 1206 3584 1959 3584 
z
" transform="scale(0.015625)"/>
      <path id="DejaVuSans-76" d="M 191 3500 
L 800 3500 
L 1894 563 
L 2988 3500 
L 3597 3500 
L 2284 0 
L 1503 0 
L 191 3500 
z
" transform="scale(0.015625)"/>
      <path id="DejaVuSans-31" d="M 794 531 
L 1825 531 
L 1825 4091 
L 703 3866 
L 703 4441 
L 1819 4666 
L 2450 4666 
L 2450 531 
L 3481 531 
L 3481 0 
L 794 0 
L 794 531 
z
" transform="scale(0.015625)"/>
     </defs>
     <use xlink:href="#DejaVuSans-43"/>
     <use xlink:href="#DejaVuSans-6f" x="69.824219"/>
     <use xlink:href="#DejaVuSans-6e" x="131.005859"/>
     <use xlink:href="#DejaVuSans-76" x="194.384766"/>
     <use xlink:href="#DejaVuSans-31" x="253.564453"/>
    </g>
    <!-- channels=64 -->
    <g style="fill: #333333" transform="translate(90.340469 86.651563) scale(0.07 -0.07)">
     <defs>
      <path id="DejaVuSans-63" d="M 3122 3366 
L 3122 2828 
Q 2878 2963 2633 3030 
Q 2388 3097 2138 3097 
Q 1578 3097 1268 2742 
Q 959 2388 959 1747 
Q 959 1106 1268 751 
Q 1578 397 2138 397 
Q 2388 397 2633 464 
Q 2878 531 3122 666 
L 3122 134 
Q 2881 22 2623 -34 
Q 2366 -91 2075 -91 
Q 1284 -91 818 406 
Q 353 903 353 1747 
Q 353 2603 823 3093 
Q 1294 3584 2113 3584 
Q 2378 3584 2631 3529 
Q 2884 3475 3122 3366 
z
" transform="scale(0.015625)"/>
      <path id="DejaVuSans-68" d="M 3513 2113 
L 3513 0 
L 2938 0 
L 2938 2094 
Q 2938 2591 2744 2837 
Q 2550 3084 2163 3084 
Q 1697 3084 1428 2787 
Q 1159 2491 1159 1978 
L 1159 0 
L 581 0 
L 581 4863 
L 1159 4863 
L 1159 2956 
Q 1366 3272 1645 3428 
Q 1925 3584 2291 3584 
Q 2894 3584 3203 3211 
Q 3513 2838 3513 2113 
z
" transform="scale(0.015625)"/>
      <path id="DejaVuSans-61" d="M 2194 1759 
Q 1497 1759 1228 1600 
Q 959 1441 959 1056 
Q 959 750 1161 570 
Q 1363 391 1709 391 
Q 2188 391 2477 730 
Q 2766 1069 2766 1631 
L 2766 1759 
L 2194 1759 
z
M 3341 1997 
L 3341 0 
L 2766 0 
L 2766 531 
Q 2569 213 2275 61 
Q 1981 -91 1556 -91 
Q 1019 -91 701 211 
Q 384 513 384 1019 
Q 384 1609 779 1909 
Q 1175 2209 1959 2209 
L 2766 2209 
L 2766 2266 
Q 2766 2663 2505 2880 
Q 2244 3097 1772 3097 
Q 1472 3097 1187 3025 
Q 903 2953 641 2809 
L 641 3341 
Q 956 3463 1253 3523 
Q 1550 3584 1831 3584 
Q 2591 3584 2966 3190 
Q 3341 2797 3341 1997 
z
" transform="scale(0.015625)"/>
      <path id="DejaVuSans-65" d="M 3597 1894 
L 3597 1613 
L 953 1613 
Q 991 1019 1311 708 
Q 1631 397 2203 397 
Q 2534 397 2845 478 
Q 3156 559 3463 722 
L 3463 178 
Q 3153 47 2828 -22 
Q 2503 -91 2169 -91 
Q 1331 -91 842 396 
Q 353 884 353 1716 
Q 353 2575 817 3079 
Q 1281 3584 2069 3584 
Q 2775 3584 3186 3129 
Q 3597 2675 3597 1894 
z
M 3022 2063 
Q 3016 2534 2758 2815 
Q 2500 3097 2075 3097 
Q 1594 3097 1305 2825 
Q 1016 2553 972 2059 
L 3022 2063 
z
" transform="scale(0.015625)"/>
      <path id="DejaVuSans-6c" d="M 603 4863 
L 1178 4863 
L 1178 0 
L 603 0 
L 603 4863 
z
" transform="scale(0.015625)"/>
      <path id="DejaVuSans-73" d="M 2834 3397 
L 2834 2853 
Q 2591 2978 2328 3040 
Q 2066 3103 1784 3103 
Q 1356 3103 1142 2972 
Q 928 2841 928 2578 
Q 928 2378 1081 2264 
Q 1234 2150 1697 2047 
L 1894 2003 
Q 2506 1872 2764 1633 
Q 3022 1394 3022 966 
Q 3022 478 2636 193 
Q 2250 -91 1575 -91 
Q 1294 -91 989 -36 
Q 684 19 347 128 
L 347 722 
Q 666 556 975 473 
Q 1284 391 1588 391 
Q 1994 391 2212 530 
Q 2431 669 2431 922 
Q 2431 1156 2273 1281 
Q 2116 1406 1581 1522 
L 1381 1569 
Q 847 1681 609 1914 
Q 372 2147 372 2553 
Q 372 3047 722 3315 
Q 1072 3584 1716 3584 
Q 2034 3584 2315 3537 
Q 2597 3491 2834 3397 
z
" transform="scale(0.015625)"/>
      <path id="DejaVuSans-3d" d="M 678 2906 
L 4684 2906 
L 4684 2381 
L 678 2381 
L 678 2906 
z
M 678 1631 
L 4684 1631 
L 4684 1100 
L 678 1100 
L 678 1631 
z
" transform="scale(0.015625)"/>
      <path id="DejaVuSans-36" d="M 2113 2584 
Q 1688 2584 1439 2293 
Q 1191 2003 1191 1497 
Q 1191 994 1439 701 
Q 1688 409 2113 409 
Q 2538 409 2786 701 
Q 3034 994 3034 1497 
Q 3034 2003 2786 2293 
Q 2538 2584 2113 2584 
z
M 3366 4563 
L 3366 3988 
Q 3128 4100 2886 4159 
Q 2644 4219 2406 4219 
Q 1781 4219 1451 3797 
Q 1122 3375 1075 2522 
Q 1259 2794 1537 2939 
Q 1816 3084 2150 3084 
Q 2853 3084 3261 2657 
Q 3669 2231 3669 1497 
Q 3669 778 3244 343 
Q 2819 -91 2113 -91 
Q 1303 -91 875 529 
Q 447 1150 447 2328 
Q 447 3434 972 4092 
Q 1497 4750 2381 4750 
Q 2619 4750 2861 4703 
Q 3103 4656 3366 4563 
z
" transform="scale(0.015625)"/>
      <path id="DejaVuSans-34" d="M 2419 4116 
L 825 1625 
L 2419 1625 
L 2419 4116 
z
M 2253 4666 
L 3047 4666 
L 3047 1625 
L 3713 1625 
L 3713 1100 
L 3047 1100 
L 3047 0 
L 2419 0 
L 2419 1100 
L 313 1100 
L 313 1709 
L 2253 4666 
z
" transform="scale(0.015625)"/>
     </defs>
     <use xlink:href="#DejaVuSans-63"/>
     <use xlink:href="#DejaVuSans-68" x="54.980469"/>
     <use xlink:href="#DejaVuSans-61" x="118.359375"/>
     <use xlink:href="#DejaVuSans-6e" x="179.638672"/>
     <use xlink:href="#DejaVuSans-6e" x="243.017578"/>
     <use xlink:href="#DejaVuSans-65" x="306.396484"/>
     <use xlink:href="#DejaVuSans-6c" x="367.919922"/>
     <use xlink:href="#DejaVuSans-73" x="395.703125"/>
     <use xlink:href="#DejaVuSans-3d" x="447.802734"/>
     <use xlink:href="#DejaVuSans-36" x="531.591797"/>
     <use xlink:href="#DejaVuSans-34" x="595.214844"/>
    </g>
    <!-- kernel=7 -->
    <g style="fill: #333333" transform="translate(97.465156 94.490031) scale(0.07 -0.07)">
     <defs>
      <path id="DejaVuSans-6b" d="M 581 4863 
L 1159 4863 
L 1159 1991 
L 2875 3500 
L 3609 3500 
L 1753 1863 
L 3688 0 
L 2938 0 
L 1159 1709 
L 1159 0 
L 581 0 
L 581 4863 
z
" transform="scale(0.015625)"/>
      <path id="DejaVuSans-72" d="M 2631 2963 
Q 2534 3019 2420 3045 
Q 2306 3072 2169 3072 
Q 1681 3072 1420 2755 
Q 1159 2438 1159 1844 
L 1159 0 
L 581 0 
L 581 3500 
L 1159 3500 
L 1159 2956 
Q 1341 3275 1631 3429 
Q 1922 3584 2338 3584 
Q 2397 3584 2469 3576 
Q 2541 3569 2628 3553 
L 2631 2963 
z
" transform="scale(0.015625)"/>
      <path id="DejaVuSans-37" d="M 525 4666 
L 3525 4666 
L 3525 4397 
L 1831 0 
L 1172 0 
L 2766 4134 
L 525 4134 
L 525 4666 
z
" transform="scale(0.015625)"/>
     </defs>
     <use xlink:href="#DejaVuSans-6b"/>
     <use xlink:href="#DejaVuSans-65" x="54.285156"/>
     <use xlink:href="#DejaVuSans-72" x="115.808594"/>
     <use xlink:href="#DejaVuSans-6e" x="155.171875"/>
     <use xlink:href="#DejaVuSans-65" x="218.550781"/>
     <use xlink:href="#DejaVuSans-6c" x="280.074219"/>
     <use xlink:href="#DejaVuSans-3d" x="307.857422"/>
     <use xlink:href="#DejaVuSans-37" x="391.646484"/>
    </g>
   </g>
   <g id="text_3">
    <!-- Conv2 -->
    <g style="fill: #333333" transform="translate(102.297891 134.253094) scale(0.07 -0.07)">
     <use xlink:href="#DejaVuSans-43"/>
     <use xlink:href="#DejaVuSans-6f" x="69.824219"/>
     <use xlink:href="#DejaVuSans-6e" x="131.005859"/>
     <use xlink:href="#DejaVuSans-76" x="194.384766"/>
     <use xlink:href="#DejaVuSans-32" x="253.564453"/>
    </g>
    <!-- channels=128 -->
    <g style="fill: #333333" transform="translate(88.113594 142.091563) scale(0.07 -0.07)">
     <defs>
      <path id="DejaVuSans-38" d="M 2034 2216 
Q 1584 2216 1326 1975 
Q 1069 1734 1069 1313 
Q 1069 891 1326 650 
Q 1584 409 2034 409 
Q 2484 409 2743 651 
Q 3003 894 3003 1313 
Q 3003 1734 2745 1975 
Q 2488 2216 2034 2216 
z
M 1403 2484 
Q 997 2584 770 2862 
Q 544 3141 544 3541 
Q 544 4100 942 4425 
Q 1341 4750 2034 4750 
Q 2731 4750 3128 4425 
Q 3525 4100 3525 3541 
Q 3525 3141 3298 2862 
Q 3072 2584 2669 2484 
Q 3125 2378 3379 2068 
Q 3634 1759 3634 1313 
Q 3634 634 3220 271 
Q 2806 -91 2034 -91 
Q 1263 -91 848 271 
Q 434 634 434 1313 
Q 434 1759 690 2068 
Q 947 2378 1403 2484 
z
M 1172 3481 
Q 1172 3119 1398 2916 
Q 1625 2713 2034 2713 
Q 2441 2713 2670 2916 
Q 2900 3119 2900 3481 
Q 2900 3844 2670 4047 
Q 2441 4250 2034 4250 
Q 1625 4250 1398 4047 
Q 1172 3844 1172 3481 
z
" transform="scale(0.015625)"/>
     </defs>
     <use xlink:href="#DejaVuSans-63"/>
     <use xlink:href="#DejaVuSans-68" x="54.980469"/>
     <use xlink:href="#DejaVuSans-61" x="118.359375"/>
     <use xlink:href="#DejaVuSans-6e" x="179.638672"/>
     <use xlink:href="#DejaVuSans-6e" x="243.017578"/>
     <use xlink:href="#DejaVuSans-65" x="306.396484"/>
     <use xlink:href="#DejaVuSans-6c" x="367.919922"/>
     <use xlink:href="#DejaVuSans-73" x="395.703125"/>
     <use xlink:href="#DejaVuSans-3d" x="447.802734"/>
     <use xlink:href="#DejaVuSans-31" x="531.591797"/>
     <use xlink:href="#DejaVuSans-32" x="595.214844"/>
     <use xlink:href="#DejaVuSans-38" x="658.837891"/>
    </g>
    <!-- kernel=5 -->
    <g style="fill: #333333" transform="translate(97.465156 149.930031) scale(0.07 -0.07)">
     <use xlink:href="#DejaVuSans-6b"/>
     <use xlink:href="#DejaVuSans-65" x="54.285156"/>
     <use xlink:href="#DejaVuSans-72" x="115.808594"/>
     <use xlink:href="#DejaVuSans-6e" x="155.171875"/>
     <use xlink:href="#DejaVuSans-65" x="218.550781"/>
     <use xlink:href="#DejaVuSans-6c" x="280.074219"/>
     <use xlink:href="#DejaVuSans-3d" x="307.857422"/>
     <use xlink:href="#DejaVuSans-35" x="391.646484"/>
    </g>
   </g>
   <g id="text_4">
    <!-- Conv3 -->
    <g style="fill: #333333" transform="translate(102.297891 189.693094) scale(0.07 -0.07)">
     <defs>
      <path id="DejaVuSans-33" d="M 2597 2516 
Q 3050 2419 3304 2112 
Q 3559 1806 3559 1356 
Q 3559 666 3084 287 
Q 2609 -91 1734 -91 
Q 1441 -91 1130 -33 
Q 819 25 488 141 
L 488 750 
Q 750 597 1062 519 
Q 1375 441 1716 441 
Q 2309 441 2620 675 
Q 2931 909 2931 1356 
Q 2931 1769 2642 2001 
Q 2353 2234 1838 2234 
L 1294 2234 
L 1294 2753 
L 1863 2753 
Q 2328 2753 2575 2939 
Q 2822 3125 2822 3475 
Q 2822 3834 2567 4026 
Q 2313 4219 1838 4219 
Q 1578 4219 1281 4162 
Q 984 4106 628 3988 
L 628 4550 
Q 988 4650 1302 4700 
Q 1616 4750 1894 4750 
Q 2613 4750 3031 4423 
Q 3450 4097 3450 3541 
Q 3450 3153 3228 2886 
Q 3006 2619 2597 2516 
z
" transform="scale(0.015625)"/>
     </defs>
     <use xlink:href="#DejaVuSans-43"/>
     <use xlink:href="#DejaVuSans-6f" x="69.824219"/>
     <use xlink:href="#DejaVuSans-6e" x="131.005859"/>
     <use xlink:href="#DejaVuSans-76" x="194.384766"/>
     <use xlink:href="#DejaVuSans-33" x="253.564453"/>
    </g>
    <!-- channels=256 -->
    <g style="fill: #333333" transform="translate(88.113594 197.531563) scale(0.07 -0.07)">
     <use xlink:href="#DejaVuSans-63"/>
     <use xlink:href="#DejaVuSans-68" x="54.980469"/>
     <use xlink:href="#DejaVuSans-61" x="118.359375"/>
     <use xlink:href="#DejaVuSans-6e" x="179.638672"/>
     <use xlink:href="#DejaVuSans-6e" x="243.017578"/>
     <use xlink:href="#DejaVuSans-65" x="306.396484"/>
     <use xlink:href="#DejaVuSans-6c" x="367.919922"/>
     <use xlink:href="#DejaVuSans-73" x="395.703125"/>
     <use xlink:href="#DejaVuSans-3d" x="447.802734"/>
     <use xlink:href="#DejaVuSans-32" x="531.591797"/>
     <use xlink:href="#DejaVuSans-35" x="595.214844"/>
     <use xlink:href="#DejaVuSans-36" x="658.837891"/>
    </g>
    <!-- kernel=3 -->
    <g style="fill: #333333" transform="translate(97.465156 205.370031) scale(0.07 -0.07)">
     <use xlink:href="#DejaVuSans-6b"/>
     <use xlink:href="#DejaVuSans-65" x="54.285156"/>
     <use xlink:href="#DejaVuSans-72" x="115.808594"/>
     <use xlink:href="#DejaVuSans-6e" x="155.171875"/>
     <use xlink:href="#DejaVuSans-65" x="218.550781"/>
     <use xlink:href="#DejaVuSans-6c" x="280.074219"/>
     <use xlink:href="#DejaVuSans-3d" x="307.857422"/>
     <use xlink:href="#DejaVuSans-33" x="391.646484"/>
    </g>
   </g>
   <g id="text_5">
    <!-- ECG Input -->
    <g style="fill: #333333" transform="translate(298.55125 36.248375) scale(0.08 -0.08)">
     <use xlink:href="#DejaVuSans-45"/>
     <use xlink:href="#DejaVuSans-43" x="63.183594"/>
     <use xlink:href="#DejaVuSans-47" x="133.007812"/>
     <use xlink:href="#DejaVuSans-20" x="210.498047"/>
     <use xlink:href="#DejaVuSans-49" x="242.285156"/>
     <use xlink:href="#DejaVuSans-6e" x="271.777344"/>
     <use xlink:href="#DejaVuSans-70" x="335.15625"/>
     <use xlink:href="#DejaVuSans-75" x="398.632812"/>
     <use xlink:href="#DejaVuSans-74" x="462.011719"/>
    </g>
    <!-- 10×250 -->
    <g style="fill: #333333" transform="translate(302.523125 45.206625) scale(0.08 -0.08)">
     <use xlink:href="#DejaVuSans-31"/>
     <use xlink:href="#DejaVuSans-30" x="63.623047"/>
     <use xlink:href="#DejaVuSans-d7" x="127.246094"/>
     <use xlink:href="#DejaVuSans-32" x="211.035156"/>
     <use xlink:href="#DejaVuSans-35" x="274.658203"/>
     <use xlink:href="#DejaVuSans-30" x="338.28125"/>
    </g>
   </g>
   <g id="text_6">
    <!-- Conv1 -->
    <g style="fill: #333333" transform="translate(307.497891 78.813094) scale(0.07 -0.07)">
     <use xlink:href="#DejaVuSans-43"/>
     <use xlink:href="#DejaVuSans-6f" x="69.824219"/>
     <use xlink:href="#DejaVuSans-6e" x="131.005859"/>
     <use xlink:href="#DejaVuSans-76" x="194.384766"/>
     <use xlink:href="#DejaVuSans-31" x="253.564453"/>
    </g>
    <!-- channels=64 -->
    <g style="fill: #333333" transform="translate(295.540469 86.651563) scale(0.07 -0.07)">
     <use xlink:href="#DejaVuSans-63"/>
     <use xlink:href="#DejaVuSans-68" x="54.980469"/>
     <use xlink:href="#DejaVuSans-61" x="118.359375"/>
     <use xlink:href="#DejaVuSans-6e" x="179.638672"/>
     <use xlink:href="#DejaVuSans-6e" x="243.017578"/>
     <use xlink:href="#DejaVuSans-65" x="306.396484"/>
     <use xlink:href="#DejaVuSans-6c" x="367.919922"/>
     <use xlink:href="#DejaVuSans-73" x="395.703125"/>
     <use xlink:href="#DejaVuSans-3d" x="447.802734"/>
     <use xlink:href="#DejaVuSans-36" x="531.591797"/>
     <use xlink:href="#DejaVuSans-34" x="595.214844"/>
    </g>
    <!-- kernel=7 -->
    <g style="fill: #333333" transform="translate(302.665156 94.490031) scale(0.07 -0.07)">
     <use xlink:href="#DejaVuSans-6b"/>
     <use xlink:href="#DejaVuSans-65" x="54.285156"/>
     <use xlink:href="#DejaVuSans-72" x="115.808594"/>
     <use xlink:href="#DejaVuSans-6e" x="155.171875"/>
     <use xlink:href="#DejaVuSans-65" x="218.550781"/>
     <use xlink:href="#DejaVuSans-6c" x="280.074219"/>
     <use xlink:href="#DejaVuSans-3d" x="307.857422"/>
     <use xlink:href="#DejaVuSans-37" x="391.646484"/>
    </g>
   </g>
   <g id="text_7">
    <!-- Conv2 -->
    <g style="fill: #333333" transform="translate(307.497891 134.253094) scale(0.07 -0.07)">
     <use xlink:href="#DejaVuSans-43"/>
     <use xlink:href="#DejaVuSans-6f" x="69.824219"/>
     <use xlink:href="#DejaVuSans-6e" x="131.005859"/>
     <use xlink:href="#DejaVuSans-76" x="194.384766"/>
     <use xlink:href="#DejaVuSans-32" x="253.564453"/>
    </g>
    <!-- channels=128 -->
    <g style="fill: #333333" transform="translate(293.313594 142.091563) scale(0.07 -0.07)">
     <use xlink:href="#DejaVuSans-63"/>
     <use xlink:href="#DejaVuSans-68" x="54.980469"/>
     <use xlink:href="#DejaVuSans-61" x="118.359375"/>
     <use xlink:href="#DejaVuSans-6e" x="179.638672"/>
     <use xlink:href="#DejaVuSans-6e" x="243.017578"/>
     <use xlink:href="#DejaVuSans-65" x="306.396484"/>
     <use xlink:href="#DejaVuSans-6c" x="367.919922"/>
     <use xlink:href="#DejaVuSans-73" x="395.703125"/>
     <use xlink:href="#DejaVuSans-3d" x="447.802734"/>
     <use xlink:href="#DejaVuSans-31" x="531.591797"/>
     <use xlink:href="#DejaVuSans-32" x="595.214844"/>
     <use xlink:href="#DejaVuSans-38" x="658.837891"/>
    </g>
    <!-- kernel=5 -->
    <g style="fill: #333333" transform="translate(302.665156 149.930031) scale(0.07 -0.07)">
     <use xlink:href="#DejaVuSans-6b"/>
     <use xlink:href="#DejaVuSans-65" x="54.285156"/>
     <use xlink:href="#DejaVuSans-72" x="115.808594"/>
     <use xlink:href="#DejaVuSans-6e" x="155.171875"/>
     <use xlink:href="#DejaVuSans-65" x="218.550781"/>
     <use xlink:href="#DejaVuSans-6c" x="280.074219"/>
     <use xlink:href="#DejaVuSans-3d" x="307.857422"/>
     <use xlink:href="#DejaVuSans-35" x="391.646484"/>
    </g>
   </g>
   <g id="text_8">
    <!-- Conv3 -->
    <g style="fill: #333333" transform="translate(307.497891 189.693094) scale(0.07 -0.07)">
     <use xlink:href="#DejaVuSans-43"/>
     <use xlink:href="#DejaVuSans-6f" x="69.824219"/>
     <use xlink:href="#DejaVuSans-6e" x="131.005859"/>
     <use xlink:href="#DejaVuSans-76" x="194.384766"/>
     <use xlink:href="#DejaVuSans-33" x="253.564453"/>
    </g>
    <!-- channels=256 -->
    <g style="fill: #333333" transform="translate(293.313594 197.531563) scale(0.07 -0.07)">
     <use xlink:href="#DejaVuSans-63"/>
     <use xlink:href="#DejaVuSans-68" x="54.980469"/>
     <use xlink:href="#DejaVuSans-61" x="118.359375"/>
     <use xlink:href="#DejaVuSans-6e" x="179.638672"/>
     <use xlink:href="#DejaVuSans-6e" x="243.017578"/>
     <use xlink:href="#DejaVuSans-65" x="306.396484"/>
     <use xlink:href="#DejaVuSans-6c" x="367.919922"/>
     <use xlink:href="#DejaVuSans-73" x="395.703125"/>
     <use xlink:href="#DejaVuSans-3d" x="447.802734"/>
     <use xlink:href="#DejaVuSans-32" x="531.591797"/>
     <use xlink:href="#DejaVuSans-35" x="595.214844"/>
     <use xlink:href="#DejaVuSans-36" x="658.837891"/>
    </g>
    <!-- kernel=3 -->
    <g style="fill: #333333" transform="translate(302.665156 205.370031) scale(0.07 -0.07)">
     <use xlink:href="#DejaVuSans-6b"/>
     <use xlink:href="#DejaVuSans-65" x="54.285156"/>
     <use xlink:href="#DejaVuSans-72" x="115.808594"/>
     <use xlink:href="#DejaVuSans-6e" x="155.171875"/>
     <use xlink:href="#DejaVuSans-65" x="218.550781"/>
     <use xlink:href="#DejaVuSans-6c" x="280.074219"/>
     <use xlink:href="#DejaVuSans-3d" x="307.857422"/>
     <use xlink:href="#DejaVuSans-33" x="391.646484"/>
    </g>
   </g>
   <g id="text_9">
    <!-- Bi-directional -->
    <g style="fill: #333333" transform="translate(189.61125 258.14925) scale(0.08 -0.08)">
     <defs>
      <path id="DejaVuSans-42" d="M 1259 2228 
L 1259 519 
L 2272 519 
Q 2781 519 3026 730 
Q 3272 941 3272 1375 
Q 3272 1813 3026 2020 
Q 2781 2228 2272 2228 
L 1259 2228 
z
M 1259 4147 
L 1259 2741 
L 2194 2741 
Q 2656 2741 2882 2914 
Q 3109 3088 3109 3444 
Q 3109 3797 2882 3972 
Q 2656 4147 2194 4147 
L 1259 4147 
z
M 628 4666 
L 2241 4666 
Q 2963 4666 3353 4366 
Q 3744 4066 3744 3513 
Q 3744 3084 3544 2831 
Q 3344 2578 2956 2516 
Q 3422 2416 3680 2098 
Q 3938 1781 3938 1306 
Q 3938 681 3513 340 
Q 3088 0 2303 0 
L 628 0 
L 628 4666 
z
" transform="scale(0.015625)"/>
      <path id="DejaVuSans-69" d="M 603 3500 
L 1178 3500 
L 1178 0 
L 603 0 
L 603 3500 
z
M 603 4863 
L 1178 4863 
L 1178 4134 
L 603 4134 
L 603 4863 
z
" transform="scale(0.015625)"/>
      <path id="DejaVuSans-2d" d="M 313 2009 
L 1997 2009 
L 1997 1497 
L 313 1497 
L 313 2009 
z
" transform="scale(0.015625)"/>
      <path id="DejaVuSans-64" d="M 2906 2969 
L 2906 4863 
L 3481 4863 
L 3481 0 
L 2906 0 
L 2906 525 
Q 2725 213 2448 61 
Q 2172 -91 1784 -91 
Q 1150 -91 751 415 
Q 353 922 353 1747 
Q 353 2572 751 3078 
Q 1150 3584 1784 3584 
Q 2172 3584 2448 3432 
Q 2725 3281 2906 2969 
z
M 947 1747 
Q 947 1113 1208 752 
Q 1469 391 1925 391 
Q 2381 391 2643 752 
Q 2906 1113 2906 1747 
Q 2906 2381 2643 2742 
Q 2381 3103 1925 3103 
Q 1469 3103 1208 2742 
Q 947 2381 947 1747 
z
" transform="scale(0.015625)"/>
     </defs>
     <use xlink:href="#DejaVuSans-42"/>
     <use xlink:href="#DejaVuSans-69" x="68.603516"/>
     <use xlink:href="#DejaVuSans-2d" x="96.386719"/>
     <use xlink:href="#DejaVuSans-64" x="132.470703"/>
     <use xlink:href="#DejaVuSans-69" x="195.947266"/>
     <use xlink:href="#DejaVuSans-72" x="223.730469"/>
     <use xlink:href="#DejaVuSans-65" x="262.59375"/>
     <use xlink:href="#DejaVuSans-63" x="324.117188"/>
     <use xlink:href="#DejaVuSans-74" x="379.097656"/>
     <use xlink:href="#DejaVuSans-69" x="418.306641"/>
     <use xlink:href="#DejaVuSans-6f" x="446.089844"/>
     <use xlink:href="#DejaVuSans-6e" x="507.271484"/>
     <use xlink:href="#DejaVuSans-61" x="570.650391"/>
     <use xlink:href="#DejaVuSans-6c" x="631.929688"/>
    </g>
    <!-- Multi-head Cross Attention -->
    <g style="fill: #333333" transform="translate(162.8275 267.1075) scale(0.08 -0.08)">
     <defs>
      <path id="DejaVuSans-4d" d="M 628 4666 
L 1569 4666 
L 2759 1491 
L 3956 4666 
L 4897 4666 
L 4897 0 
L 4281 0 
L 4281 4097 
L 3078 897 
L 2444 897 
L 1241 4097 
L 1241 0 
L 628 0 
L 628 4666 
z
" transform="scale(0.015625)"/>
      <path id="DejaVuSans-41" d="M 2188 4044 
L 1331 1722 
L 3047 1722 
L 2188 4044 
z
M 1831 4666 
L 2547 4666 
L 4325 0 
L 3669 0 
L 3244 1197 
L 1141 1197 
L 716 0 
L 50 0 
L 1831 4666 
z
" transform="scale(0.015625)"/>
     </defs>
     <use xlink:href="#DejaVuSans-4d"/>
     <use xlink:href="#DejaVuSans-75" x="86.279297"/>
     <use xlink:href="#DejaVuSans-6c" x="149.658203"/>
     <use xlink:href="#DejaVuSans-74" x="177.441406"/>
     <use xlink:href="#DejaVuSans-69" x="216.650391"/>
     <use xlink:href="#DejaVuSans-2d" x="244.433594"/>
     <use xlink:href="#DejaVuSans-68" x="280.517578"/>
     <use xlink:href="#DejaVuSans-65" x="343.896484"/>
     <use xlink:href="#DejaVuSans-61" x="405.419922"/>
     <use xlink:href="#DejaVuSans-64" x="466.699219"/>
     <use xlink:href="#DejaVuSans-20" x="530.175781"/>
     <use xlink:href="#DejaVuSans-43" x="561.962891"/>
     <use xlink:href="#DejaVuSans-72" x="631.787109"/>
     <use xlink:href="#DejaVuSans-6f" x="670.650391"/>
     <use xlink:href="#DejaVuSans-73" x="731.832031"/>
     <use xlink:href="#DejaVuSans-73" x="783.931641"/>
     <use xlink:href="#DejaVuSans-20" x="836.03125"/>
     <use xlink:href="#DejaVuSans-41" x="867.818359"/>
     <use xlink:href="#DejaVuSans-74" x="934.476562"/>
     <use xlink:href="#DejaVuSans-74" x="973.685547"/>
     <use xlink:href="#DejaVuSans-65" x="1012.894531"/>
     <use xlink:href="#DejaVuSans-6e" x="1074.417969"/>
     <use xlink:href="#DejaVuSans-74" x="1137.796875"/>
     <use xlink:href="#DejaVuSans-69" x="1177.005859"/>
     <use xlink:href="#DejaVuSans-6f" x="1204.789062"/>
     <use xlink:href="#DejaVuSans-6e" x="1265.970703"/>
    </g>
    <!-- output dim = 256 -->
    <g style="fill: #333333" transform="translate(180.459375 276.06575) scale(0.08 -0.08)">
     <defs>
      <path id="DejaVuSans-6d" d="M 3328 2828 
Q 3544 3216 3844 3400 
Q 4144 3584 4550 3584 
Q 5097 3584 5394 3201 
Q 5691 2819 5691 2113 
L 5691 0 
L 5113 0 
L 5113 2094 
Q 5113 2597 4934 2840 
Q 4756 3084 4391 3084 
Q 3944 3084 3684 2787 
Q 3425 2491 3425 1978 
L 3425 0 
L 2847 0 
L 2847 2094 
Q 2847 2600 2669 2842 
Q 2491 3084 2119 3084 
Q 1678 3084 1418 2786 
Q 1159 2488 1159 1978 
L 1159 0 
L 581 0 
L 581 3500 
L 1159 3500 
L 1159 2956 
Q 1356 3278 1631 3431 
Q 1906 3584 2284 3584 
Q 2666 3584 2933 3390 
Q 3200 3197 3328 2828 
z
" transform="scale(0.015625)"/>
     </defs>
     <use xlink:href="#DejaVuSans-6f"/>
     <use xlink:href="#DejaVuSans-75" x="61.181641"/>
     <use xlink:href="#DejaVuSans-74" x="124.560547"/>
     <use xlink:href="#DejaVuSans-70" x="163.769531"/>
     <use xlink:href="#DejaVuSans-75" x="227.246094"/>
     <use xlink:href="#DejaVuSans-74" x="290.625"/>
     <use xlink:href="#DejaVuSans-20" x="329.833984"/>
     <use xlink:href="#DejaVuSans-64" x="361.621094"/>
     <use xlink:href="#DejaVuSans-69" x="425.097656"/>
     <use xlink:href="#DejaVuSans-6d" x="452.880859"/>
     <use xlink:href="#DejaVuSans-20" x="550.292969"/>
     <use xlink:href="#DejaVuSans-3d" x="582.080078"/>
     <use xlink:href="#DejaVuSans-20" x="665.869141"/>
     <use xlink:href="#DejaVuSans-32" x="697.65625"/>
     <use xlink:href="#DejaVuSans-35" x="761.279297"/>
     <use xlink:href="#DejaVuSans-36" x="824.902344"/>
    </g>
   </g>
   <g id="text_10">
    <!-- Feature Fusion -->
    <g style="fill: #333333" transform="translate(186.82375 327.308375) scale(0.08 -0.08)">
     <defs>
      <path id="DejaVuSans-46" d="M 628 4666 
L 3309 4666 
L 3309 4134 
L 1259 4134 
L 1259 2759 
L 3109 2759 
L 3109 2228 
L 1259 2228 
L 1259 0 
L 628 0 
L 628 4666 
z
" transform="scale(0.015625)"/>
     </defs>
     <use xlink:href="#DejaVuSans-46"/>
     <use xlink:href="#DejaVuSans-65" x="52.019531"/>
     <use xlink:href="#DejaVuSans-61" x="113.542969"/>
     <use xlink:href="#DejaVuSans-74" x="174.822266"/>
     <use xlink:href="#DejaVuSans-75" x="214.03125"/>
     <use xlink:href="#DejaVuSans-72" x="277.410156"/>
     <use xlink:href="#DejaVuSans-65" x="316.273438"/>
     <use xlink:href="#DejaVuSans-20" x="377.796875"/>
     <use xlink:href="#DejaVuSans-46" x="409.583984"/>
     <use xlink:href="#DejaVuSans-75" x="461.603516"/>
     <use xlink:href="#DejaVuSans-73" x="524.982422"/>
     <use xlink:href="#DejaVuSans-69" x="577.082031"/>
     <use xlink:href="#DejaVuSans-6f" x="604.865234"/>
     <use xlink:href="#DejaVuSans-6e" x="666.046875"/>
    </g>
    <!-- (Concat / Projection) -->
    <g style="fill: #333333" transform="translate(175.216875 336.266625) scale(0.08 -0.08)">
     <defs>
      <path id="DejaVuSans-28" d="M 1984 4856 
Q 1566 4138 1362 3434 
Q 1159 2731 1159 2009 
Q 1159 1288 1364 580 
Q 1569 -128 1984 -844 
L 1484 -844 
Q 1016 -109 783 600 
Q 550 1309 550 2009 
Q 550 2706 781 3412 
Q 1013 4119 1484 4856 
L 1984 4856 
z
" transform="scale(0.015625)"/>
      <path id="DejaVuSans-2f" d="M 1625 4666 
L 2156 4666 
L 531 -594 
L 0 -594 
L 1625 4666 
z
" transform="scale(0.015625)"/>
      <path id="DejaVuSans-50" d="M 1259 4147 
L 1259 2394 
L 2053 2394 
Q 2494 2394 2734 2622 
Q 2975 2850 2975 3272 
Q 2975 3691 2734 3919 
Q 2494 4147 2053 4147 
L 1259 4147 
z
M 628 4666 
L 2053 4666 
Q 2838 4666 3239 4311 
Q 3641 3956 3641 3272 
Q 3641 2581 3239 2228 
Q 2838 1875 2053 1875 
L 1259 1875 
L 1259 0 
L 628 0 
L 628 4666 
z
" transform="scale(0.015625)"/>
      <path id="DejaVuSans-6a" d="M 603 3500 
L 1178 3500 
L 1178 -63 
Q 1178 -731 923 -1031 
Q 669 -1331 103 -1331 
L -116 -1331 
L -116 -844 
L 38 -844 
Q 366 -844 484 -692 
Q 603 -541 603 -63 
L 603 3500 
z
M 603 4863 
L 1178 4863 
L 1178 4134 
L 603 4134 
L 603 4863 
z
" transform="scale(0.015625)"/>
      <path id="DejaVuSans-29" d="M 513 4856 
L 1013 4856 
Q 1481 4119 1714 3412 
Q 1947 2706 1947 2009 
Q 1947 1309 1714 600 
Q 1481 -109 1013 -844 
L 513 -844 
Q 928 -128 1133 580 
Q 1338 1288 1338 2009 
Q 1338 2731 1133 3434 
Q 928 4138 513 4856 
z
" transform="scale(0.015625)"/>
     </defs>
     <use xlink:href="#DejaVuSans-28"/>
     <use xlink:href="#DejaVuSans-43" x="39.013672"/>
     <use xlink:href="#DejaVuSans-6f" x="108.837891"/>
     <use xlink:href="#DejaVuSans-6e" x="170.019531"/>
     <use xlink:href="#DejaVuSans-63" x="233.398438"/>
     <use xlink:href="#DejaVuSans-61" x="288.378906"/>
     <use xlink:href="#DejaVuSans-74" x="349.658203"/>
     <use xlink:href="#DejaVuSans-20" x="388.867188"/>
     <use xlink:href="#DejaVuSans-2f" x="420.654297"/>
     <use xlink:href="#DejaVuSans-20" x="454.345703"/>
     <use xlink:href="#DejaVuSans-50" x="486.132812"/>
     <use xlink:href="#DejaVuSans-72" x="544.685547"/>
     <use xlink:href="#DejaVuSans-6f" x="583.548828"/>
     <use xlink:href="#DejaVuSans-6a" x="644.730469"/>
     <use xlink:href="#DejaVuSans-65" x="672.513672"/>
     <use xlink:href="#DejaVuSans-63" x="734.037109"/>
     <use xlink:href="#DejaVuSans-74" x="789.017578"/>
     <use xlink:href="#DejaVuSans-69" x="828.226562"/>
     <use xlink:href="#DejaVuSans-6f" x="856.009766"/>
     <use xlink:href="#DejaVuSans-6e" x="917.191406"/>
     <use xlink:href="#DejaVuSans-29" x="980.570312"/>
    </g>
   </g>
   <g id="text_11">
    <!-- FC Layer 1 -->
    <g style="fill: #333333" transform="translate(194.665625 387.368375) scale(0.08 -0.08)">
     <defs>
      <path id="DejaVuSans-4c" d="M 628 4666 
L 1259 4666 
L 1259 531 
L 3531 531 
L 3531 0 
L 628 0 
L 628 4666 
z
" transform="scale(0.015625)"/>
      <path id="DejaVuSans-79" d="M 2059 -325 
Q 1816 -950 1584 -1140 
Q 1353 -1331 966 -1331 
L 506 -1331 
L 506 -850 
L 844 -850 
Q 1081 -850 1212 -737 
Q 1344 -625 1503 -206 
L 1606 56 
L 191 3500 
L 800 3500 
L 1894 763 
L 2988 3500 
L 3597 3500 
L 2059 -325 
z
" transform="scale(0.015625)"/>
     </defs>
     <use xlink:href="#DejaVuSans-46"/>
     <use xlink:href="#DejaVuSans-43" x="57.519531"/>
     <use xlink:href="#DejaVuSans-20" x="127.34375"/>
     <use xlink:href="#DejaVuSans-4c" x="159.130859"/>
     <use xlink:href="#DejaVuSans-61" x="214.84375"/>
     <use xlink:href="#DejaVuSans-79" x="276.123047"/>
     <use xlink:href="#DejaVuSans-65" x="335.302734"/>
     <use xlink:href="#DejaVuSans-72" x="396.826172"/>
     <use xlink:href="#DejaVuSans-20" x="437.939453"/>
     <use xlink:href="#DejaVuSans-31" x="469.726562"/>
    </g>
    <!-- units=512 -->
    <g style="fill: #333333" transform="translate(195.18 396.326625) scale(0.08 -0.08)">
     <use xlink:href="#DejaVuSans-75"/>
     <use xlink:href="#DejaVuSans-6e" x="63.378906"/>
     <use xlink:href="#DejaVuSans-69" x="126.757812"/>
     <use xlink:href="#DejaVuSans-74" x="154.541016"/>
     <use xlink:href="#DejaVuSans-73" x="193.75"/>
     <use xlink:href="#DejaVuSans-3d" x="245.849609"/>
     <use xlink:href="#DejaVuSans-35" x="329.638672"/>
     <use xlink:href="#DejaVuSans-31" x="393.261719"/>
     <use xlink:href="#DejaVuSans-32" x="456.884766"/>
    </g>
   </g>
   <g id="text_12">
    <!-- FC Layer 2 -->
    <g style="fill: #333333" transform="translate(194.665625 433.568375) scale(0.08 -0.08)">
     <use xlink:href="#DejaVuSans-46"/>
     <use xlink:href="#DejaVuSans-43" x="57.519531"/>
     <use xlink:href="#DejaVuSans-20" x="127.34375"/>
     <use xlink:href="#DejaVuSans-4c" x="159.130859"/>
     <use xlink:href="#DejaVuSans-61" x="214.84375"/>
     <use xlink:href="#DejaVuSans-79" x="276.123047"/>
     <use xlink:href="#DejaVuSans-65" x="335.302734"/>
     <use xlink:href="#DejaVuSans-72" x="396.826172"/>
     <use xlink:href="#DejaVuSans-20" x="437.939453"/>
     <use xlink:href="#DejaVuSans-32" x="469.726562"/>
    </g>
    <!-- units=256 -->
    <g style="fill: #333333" transform="translate(195.18 442.526625) scale(0.08 -0.08)">
     <use xlink:href="#DejaVuSans-75"/>
     <use xlink:href="#DejaVuSans-6e" x="63.378906"/>
     <use xlink:href="#DejaVuSans-69" x="126.757812"/>
     <use xlink:href="#DejaVuSans-74" x="154.541016"/>
     <use xlink:href="#DejaVuSans-73" x="193.75"/>
     <use xlink:href="#DejaVuSans-3d" x="245.849609"/>
     <use xlink:href="#DejaVuSans-32" x="329.638672"/>
     <use xlink:href="#DejaVuSans-35" x="393.261719"/>
     <use xlink:href="#DejaVuSans-36" x="456.884766"/>
    </g>
   </g>
   <g id="text_13">
    <!-- FC Layer 3 -->
    <g style="fill: #333333" transform="translate(194.665625 479.768375) scale(0.08 -0.08)">
     <use xlink:href="#DejaVuSans-46"/>
     <use xlink:href="#DejaVuSans-43" x="57.519531"/>
     <use xlink:href="#DejaVuSans-20" x="127.34375"/>
     <use xlink:href="#DejaVuSans-4c" x="159.130859"/>
     <use xlink:href="#DejaVuSans-61" x="214.84375"/>
     <use xlink:href="#DejaVuSans-79" x="276.123047"/>
     <use xlink:href="#DejaVuSans-65" x="335.302734"/>
     <use xlink:href="#DejaVuSans-72" x="396.826172"/>
     <use xlink:href="#DejaVuSans-20" x="437.939453"/>
     <use xlink:href="#DejaVuSans-33" x="469.726562"/>
    </g>
    <!-- units=128 -->
    <g style="fill: #333333" transform="translate(195.18 488.726625) scale(0.08 -0.08)">
     <use xlink:href="#DejaVuSans-75"/>
     <use xlink:href="#DejaVuSans-6e" x="63.378906"/>
     <use xlink:href="#DejaVuSans-69" x="126.757812"/>
     <use xlink:href="#DejaVuSans-74" x="154.541016"/>
     <use xlink:href="#DejaVuSans-73" x="193.75"/>
     <use xlink:href="#DejaVuSans-3d" x="245.849609"/>
     <use xlink:href="#DejaVuSans-31" x="329.638672"/>
     <use xlink:href="#DejaVuSans-32" x="393.261719"/>
     <use xlink:href="#DejaVuSans-38" x="456.884766"/>
    </g>
   </g>
   <g id="text_14">
    <!-- Output -->
    <g style="fill: #333333" transform="translate(202.105625 525.968375) scale(0.08 -0.08)">
     <defs>
      <path id="DejaVuSans-4f" d="M 2522 4238 
Q 1834 4238 1429 3725 
Q 1025 3213 1025 2328 
Q 1025 1447 1429 934 
Q 1834 422 2522 422 
Q 3209 422 3611 934 
Q 4013 1447 4013 2328 
Q 4013 3213 3611 3725 
Q 3209 4238 2522 4238 
z
M 2522 4750 
Q 3503 4750 4090 4092 
Q 4678 3434 4678 2328 
Q 4678 1225 4090 567 
Q 3503 -91 2522 -91 
Q 1538 -91 948 565 
Q 359 1222 359 2328 
Q 359 3434 948 4092 
Q 1538 4750 2522 4750 
z
" transform="scale(0.015625)"/>
     </defs>
     <use xlink:href="#DejaVuSans-4f"/>
     <use xlink:href="#DejaVuSans-75" x="78.710938"/>
     <use xlink:href="#DejaVuSans-74" x="142.089844"/>
     <use xlink:href="#DejaVuSans-70" x="181.298828"/>
     <use xlink:href="#DejaVuSans-75" x="244.775391"/>
     <use xlink:href="#DejaVuSans-74" x="308.154297"/>
    </g>
    <!-- 5-class comfort level -->
    <g style="fill: #333333" transform="translate(174.41625 534.926625) scale(0.08 -0.08)">
     <defs>
      <path id="DejaVuSans-66" d="M 2375 4863 
L 2375 4384 
L 1825 4384 
Q 1516 4384 1395 4259 
Q 1275 4134 1275 3809 
L 1275 3500 
L 2222 3500 
L 2222 3053 
L 1275 3053 
L 1275 0 
L 697 0 
L 697 3053 
L 147 3053 
L 147 3500 
L 697 3500 
L 697 3744 
Q 697 4328 969 4595 
Q 1241 4863 1831 4863 
L 2375 4863 
z
" transform="scale(0.015625)"/>
     </defs>
     <use xlink:href="#DejaVuSans-35"/>
     <use xlink:href="#DejaVuSans-2d" x="63.623047"/>
     <use xlink:href="#DejaVuSans-63" x="99.707031"/>
     <use xlink:href="#DejaVuSans-6c" x="154.6875"/>
     <use xlink:href="#DejaVuSans-61" x="182.470703"/>
     <use xlink:href="#DejaVuSans-73" x="243.75"/>
     <use xlink:href="#DejaVuSans-73" x="295.849609"/>
     <use xlink:href="#DejaVuSans-20" x="347.949219"/>
     <use xlink:href="#DejaVuSans-63" x="379.736328"/>
     <use xlink:href="#DejaVuSans-6f" x="434.716797"/>
     <use xlink:href="#DejaVuSans-6d" x="495.898438"/>
     <use xlink:href="#DejaVuSans-66" x="593.310547"/>
     <use xlink:href="#DejaVuSans-6f" x="628.515625"/>
     <use xlink:href="#DejaVuSans-72" x="689.697266"/>
     <use xlink:href="#DejaVuSans-74" x="730.810547"/>
     <use xlink:href="#DejaVuSans-20" x="770.019531"/>
     <use xlink:href="#DejaVuSans-6c" x="801.806641"/>
     <use xlink:href="#DejaVuSans-65" x="829.589844"/>
     <use xlink:href="#DejaVuSans-76" x="891.113281"/>
     <use xlink:href="#DejaVuSans-65" x="950.292969"/>
     <use xlink:href="#DejaVuSans-6c" x="1011.816406"/>
    </g>
   </g>
  </g>
 </g>
 <defs>
  <clipPath id="p2286cd19d5">
   <rect x="10.8" y="10.8" width="410.4" height="554.4"/>
  </clipPath>
 </defs>
</svg>
